<?xml version="1.0" encoding="UTF-8"?>
<svg version="1.1" xmlns="http://www.w3.org/2000/svg" width="32" height="32">
<path d="M0 0 C4.8846525 2.26787438 7.73212562 5.1153475 10 10 C10.75381535 15.5997712 10.77303575 20.33499991 8.375 25.5 C3.80134327 30.3143755 0.6912538 32.25156236 -6 32.5 C-12.6912538 32.25156236 -15.80134327 30.3143755 -20.375 25.5 C-22.77303575 20.33499991 -22.75381535 15.5997712 -22 10 C-17.52212837 0.3553534 -9.85292056 -1.32635469 0 0 Z " fill="#201945" transform="translate(22,0)"/>
<path d="M0 0 C2.65405779 2.31111774 3.61119054 4.32674996 4.75 7.625 C5.66530485 10.02671438 5.66530485 10.02671438 7 12 C10.62176584 13.22267708 10.62176584 13.22267708 14 13 C13.25 17.75 13.25 17.75 11 20 C3.86311531 20.56641942 3.86311531 20.56641942 1 18.6875 C0 17 0 17 0 14 C-1.32 14 -2.64 14 -4 14 C-4.33 15.32 -4.66 16.64 -5 18 C-5.66 18 -6.32 18 -7 18 C-6.35534798 13.66695924 -4.81074878 10.13327935 -2.9375 6.1875 C-2.11572266 4.44533203 -2.11572266 4.44533203 -1.27734375 2.66796875 C-0.85582031 1.78753906 -0.43429688 0.90710938 0 0 Z " fill="#6C44D7" transform="translate(13,5)"/>
<path d="M0 0 C2.55263088 2.274694 3.84144815 4.43202693 5.1875 7.5625 C5.53167969 8.34753906 5.87585937 9.13257813 6.23046875 9.94140625 C7 12 7 12 7 14 C6.01 13.67 5.02 13.34 4 13 C2.3125 9.4375 2.3125 9.4375 1 6 C-1.36980013 8.95377498 -1.36980013 8.95377498 -1 13 C-2.4375 14.625 -2.4375 14.625 -4 16 C-4.33 16.66 -4.66 17.32 -5 18 C-5.66 18 -6.32 18 -7 18 C-6.35534798 13.66695924 -4.81074878 10.13327935 -2.9375 6.1875 C-2.11572266 4.44533203 -2.11572266 4.44533203 -1.27734375 2.66796875 C-0.85582031 1.78753906 -0.43429688 0.90710938 0 0 Z " fill="#E4E2EB" transform="translate(13,5)"/>
<path d="M0 0 C3 3.75 3 3.75 3 6 C4.98 6 6.96 6 9 6 C8.67 6.99 8.34 7.98 8 9 C5.125 9.125 5.125 9.125 2 9 C0 7 0 7 -0.125 3.375 C-0.08375 2.26125 -0.0425 1.1475 0 0 Z " fill="#2A1F56" transform="translate(15,14)"/>
<path d="M0 0 C1 3 1 3 1 7 C-0.4375 8.625 -0.4375 8.625 -2 10 C-2.33 10.66 -2.66 11.32 -3 12 C-3.66 12 -4.32 12 -5 12 C-4.42365861 7.24518354 -2.44931479 4.02951788 0 0 Z " fill="#E5E4EB" transform="translate(11,11)"/>
<path d="M0 0 C3.4375 0.1875 3.4375 0.1875 7 1 C7.66 2.32 8.32 3.64 9 5 C6.03 4.67 3.06 4.34 0 4 C-0.33 3.01 -0.66 2.02 -1 1 C-0.67 0.67 -0.34 0.34 0 0 Z " fill="#6844C8" transform="translate(17,9)"/>
<path d="M0 0 C0.99 0.99 1.98 1.98 3 3 C2.34 4.98 1.68 6.96 1 9 C-0.32 8.67 -1.64 8.34 -3 8 C-2.01 5.36 -1.02 2.72 0 0 Z " fill="#6C52B4" transform="translate(13,10)"/>
<path d="M0 0 C1.670625 0.061875 1.670625 0.061875 3.375 0.125 C3.045 1.775 2.715 3.425 2.375 5.125 C1.385 5.125 0.395 5.125 -0.625 5.125 C-0.295 4.135 0.035 3.145 0.375 2.125 C-1.605 2.125 -3.585 2.125 -5.625 2.125 C-3.625 0.125 -3.625 0.125 0 0 Z " fill="#6A47C7" transform="translate(23.625,17.875)"/>
<path d="M0 0 C0.99 0.99 1.98 1.98 3 3 C2.67 3.99 2.34 4.98 2 6 C1.01 6.33 0.02 6.66 -1 7 C-2 4 -2 4 -1.0625 1.8125 C-0.5365625 0.9153125 -0.5365625 0.9153125 0 0 Z " fill="#D5D3DD" transform="translate(13,5)"/>
</svg>
